HIERARCHY
ROOT Hips
{
	OFFSET 0.00000 0.00000 0.00000
	CHANNELS 6 Xposition Yposition Zposition Zrotation Yrotation Xrotation 
	JOINT LHipJoint
	{
		OFFSET 0 0 0
		CHANNELS 3 Zrotation Yrotation Xrotation
		JOINT LeftUpLeg
		{
			OFFSET 1.48831 -1.59570 0.95625
			CHANNELS 3 Zrotation Yrotation Xrotation
			JOINT LeftLeg
			{
				OFFSET 2.20856 -6.06797 0.00000
				CHANNELS 3 Zrotation Yrotation Xrotation
				JOINT LeftFoot
				{
					OFFSET 2.62924 -7.22379 0.00000
					CHANNELS 3 Zrotation Yrotation Xrotation
					JOINT LeftToeBase
					{
						OFFSET 0.16802 -0.46163 2.41673
						CHANNELS 3 Zrotation Yrotation Xrotation
						End Site
						{
							OFFSET 0.00000 -0.00000 1.23760
						}
					}
				}
			}
		}
	}
	JOINT RHipJoint
	{
		OFFSET 0 0 0
		CHANNELS 3 Zrotation Yrotation Xrotation
		JOINT RightUpLeg
		{
			OFFSET -1.56796 -1.59570 0.95625
			CHANNELS 3 Zrotation Yrotation Xrotation
			JOINT RightLeg
			{
				OFFSET -2.29239 -6.29829 0.00000
				CHANNELS 3 Zrotation Yrotation Xrotation
				JOINT RightFoot
				{
					OFFSET -2.66963 -7.33475 0.00000
					CHANNELS 3 Zrotation Yrotation Xrotation
					JOINT RightToeBase
					{
						OFFSET -0.18185 -0.49964 2.34359
						CHANNELS 3 Zrotation Yrotation Xrotation
						End Site
						{
							OFFSET -0.00000 -0.00000 1.20477
						}
					}
				}
			}
		}
	}
	JOINT LowerBack
	{
		OFFSET 0 0 0
		CHANNELS 3 Zrotation Yrotation Xrotation
		JOINT Spine
		{
			OFFSET 0.03505 2.15832 -0.34324
			CHANNELS 3 Zrotation Yrotation Xrotation
			JOINT Spine1
			{
				OFFSET -0.01089 2.17963 0.04689
				CHANNELS 3 Zrotation Yrotation Xrotation
				JOINT Neck
				{
					OFFSET 0 0 0
					CHANNELS 3 Zrotation Yrotation Xrotation
					JOINT Neck1
					{
						OFFSET 0.04686 1.69404 0.22159
						CHANNELS 3 Zrotation Yrotation Xrotation
						JOINT Head
						{
							OFFSET 0.00265 1.69305 -0.01513
							CHANNELS 3 Zrotation Yrotation Xrotation
							End Site
							{
								OFFSET -0.00415 1.80215 -0.03034
							}
						}
					}
				}
				JOINT LeftShoulder
				{
					OFFSET 0 0 0
					CHANNELS 3 Zrotation Yrotation Xrotation
					JOINT LeftArm
					{
						OFFSET 3.67184 1.11724 -0.19002
						CHANNELS 3 Zrotation Yrotation Xrotation
						JOINT LeftForeArm
						{
							OFFSET 5.17714 -0.00000 -0.00000
							CHANNELS 3 Zrotation Yrotation Xrotation
							JOINT LeftHand
							{
								OFFSET 3.43679 -0.00000 -0.00000
								CHANNELS 3 Zrotation Yrotation Xrotation
								JOINT LeftFingerBase
								{
									OFFSET 0 0 0
									CHANNELS 3 Zrotation Yrotation Xrotation
									JOINT LeftHandIndex1
									{
										OFFSET 0.57312 -0.00000 -0.00000
										CHANNELS 3 Zrotation Yrotation Xrotation
										End Site
										{
											OFFSET 0.46206 -0.00000 -0.00000
										}
									}
								}
								JOINT LThumb
								{
									OFFSET 0 0 0
									CHANNELS 3 Zrotation Yrotation Xrotation
									End Site
									{
										OFFSET 0.46912 -0.00000 0.46912
									}
								}
							}
						}
					}
				}
				JOINT RightShoulder
				{
					OFFSET 0 0 0
					CHANNELS 3 Zrotation Yrotation Xrotation
					JOINT RightArm
					{
						OFFSET -3.59596 0.95831 -0.26050
						CHANNELS 3 Zrotation Yrotation Xrotation
						JOINT RightForeArm
						{
							OFFSET -5.23908 -0.00000 -0.00000
							CHANNELS 3 Zrotation Yrotation Xrotation
							JOINT RightHand
							{
								OFFSET -3.46485 -0.00000 -0.00000
								CHANNELS 3 Zrotation Yrotation Xrotation
								JOINT RightFingerBase
								{
									OFFSET 0 0 0
									CHANNELS 3 Zrotation Yrotation Xrotation
									JOINT RightHandIndex1
									{
										OFFSET -0.60875 -0.00000 -0.00000
										CHANNELS 3 Zrotation Yrotation Xrotation
										End Site
										{
											OFFSET -0.49079 -0.00000 -0.00000
										}
									}
								}
								JOINT RThumb
								{
									OFFSET 0 0 0
									CHANNELS 3 Zrotation Yrotation Xrotation
									End Site
									{
										OFFSET -0.49829 -0.00000 0.49829
									}
								}
							}
						}
					}
				}
			}
		}
	}
}
MOTION
Frames: 7
Frame Time: .0083333
4.8703 13.8556 -24.9818 -175.4090 -64.1253 186.0930 0.0000 0.0000 0.0000 -6.2191 4.9133 -61.0961 15.1067 19.4160 75.5580 1.7134 -5.4103 -23.6006 0.3512 -3.8077 -10.5364 0.0000 0.0000 0.0000 15.2092 10.5759 -60.2832 -16.8834 -19.7655 80.8533 -2.5136 0.4966 -29.9007 -0.1084 2.1231 -5.8459 0.7602 -0.1136 34.6221 -0.5221 -1.5858 10.3487 -0.3198 -1.4036 -6.1544 8.0145 0.7052 -4.3481 8.9154 -7.3168 36.5476 1.0115 -2.0382 13.3852 0.0000 -0.0000 0.0000 -83.4150 2.5517 30.8983 139.3641 -48.4421 -101.0863 -0.0000 0.0000 -6.8376 -6.7964 31.7313 -3.5866 -7.1250 0.0000 -0.0000 -41.5593 56.5825 -13.3921 0.0000 -0.0000 0.0000 88.3691 2.4319 43.1479 -159.9928 30.6510 -114.4650 0.0000 -0.0000 -12.4556 48.3725 -21.4355 -22.3536 7.1250 -0.0000 -0.0000 58.7135 -41.0587 10.1969
4.8802 13.8465 -24.9745 -175.2550 -64.1792 186.0170 0.0000 0.0000 0.0000 -6.1347 4.8322 -61.3044 15.1506 19.4266 75.6898 1.7111 -5.3970 -23.5858 0.3493 -3.7976 -10.5080 0.0000 0.0000 0.0000 15.2284 10.5986 -60.4598 -16.9099 -19.7695 80.9316 -2.5107 0.4711 -29.8909 -0.1088 2.1272 -5.8574 0.7343 -0.0894 34.6402 -0.5178 -1.5706 10.3894 -0.3074 -1.3992 -6.1158 7.9975 0.7240 -4.3257 8.9163 -7.2868 36.5648 1.0193 -2.0266 13.3877 0.0000 -0.0000 0.0000 -83.4231 2.4973 30.9037 139.3664 -48.4408 -101.0880 -0.0000 0.0000 -6.8193 -6.8348 31.7646 -3.6104 -7.1250 0.0000 -0.0000 -41.6257 56.6001 -13.4379 0.0000 -0.0000 0.0000 88.3587 2.4647 43.1740 -159.9915 30.6526 -114.4643 0.0000 -0.0000 -12.4310 47.9412 -21.5556 -22.1563 7.1250 -0.0000 -0.0000 58.7984 -41.2869 9.5789
4.8895 13.8378 -24.9671 -175.1070 -64.2278 185.9420 0.0000 0.0000 0.0000 -6.0549 4.7554 -61.5021 15.1931 19.4368 75.8177 1.7094 -5.3837 -23.5751 0.3475 -3.7875 -10.4796 0.0000 0.0000 0.0000 15.2439 10.6224 -60.6253 -16.9345 -19.7732 81.0044 -2.5073 0.4444 -29.8784 -0.1090 2.1287 -5.8614 0.7054 -0.0622 34.6570 -0.5126 -1.5526 10.4296 -0.2934 -1.3936 -6.0774 7.9873 0.7389 -4.3003 8.9048 -7.2568 36.5780 1.0209 -2.0155 13.3866 0.0000 -0.0000 0.0000 -83.4338 2.4405 30.9090 139.3687 -48.4395 -101.0897 -0.0000 0.0000 -6.8026 -6.8706 31.7984 -3.6329 -7.1250 0.0000 -0.0000 -41.6902 56.6185 -13.4839 0.0000 -0.0000 0.0000 88.3436 2.4983 43.1883 -159.9955 30.6477 -114.4664 0.0000 -0.0000 -12.4380 47.5105 -21.6946 -21.9771 7.1250 -0.0000 -0.0000 58.8932 -41.5264 8.9367
4.8984 13.8294 -24.9600 -174.9770 -64.2721 185.8830 0.0000 0.0000 0.0000 -5.9852 4.6811 -61.6936 15.2343 19.4465 75.9414 1.7081 -5.3688 -23.5670 0.3459 -3.7791 -10.4560 0.0000 0.0000 0.0000 15.2494 10.6494 -60.7863 -16.9584 -19.7767 81.0751 -2.5036 0.4152 -29.8653 -0.1099 2.1374 -5.8856 0.6723 -0.0353 34.6669 -0.5137 -1.5371 10.4715 -0.2831 -1.3891 -6.0348 7.9858 0.7517 -4.2772 8.8809 -7.2254 36.5881 1.0162 -2.0040 13.3837 -0.0000 -0.0000 0.0000 -83.4403 2.3843 30.9075 139.3812 -48.4323 -101.0991 -0.0000 0.0000 -6.7905 -6.8792 31.8171 -3.6394 -7.1250 0.0000 -0.0000 -41.7159 56.6311 -13.5079 -0.0000 -0.0000 0.0000 88.3317 2.5374 43.1959 -160.0003 30.6420 -114.4688 0.0000 -0.0000 -12.4787 47.0893 -21.8515 -21.8205 7.1250 -0.0000 -0.0000 58.9978 -41.7734 8.2808
4.9068 13.8218 -24.9528 -174.8540 -64.3147 185.8240 0.0000 0.0000 0.0000 -5.9210 4.6088 -61.8706 15.2735 19.4557 76.0591 1.7072 -5.3548 -23.5623 0.3442 -3.7697 -10.4296 0.0000 0.0000 0.0000 15.2548 10.6674 -60.9349 -16.9795 -19.7798 81.1374 -2.4991 0.3828 -29.8477 -0.1113 2.1509 -5.9229 0.6408 -0.0141 34.6790 -0.5198 -1.5286 10.5133 -0.2764 -1.3878 -5.9932 7.9783 0.7666 -4.2609 8.8547 -7.1928 36.6084 1.0118 -1.9924 13.3867 0.0000 -0.0000 0.0000 -83.4453 2.3328 30.8920 139.4016 -48.4204 -101.1144 -0.0000 0.0000 -6.7836 -6.8691 31.8273 -3.6351 -7.1250 0.0000 -0.0000 -41.7164 56.6410 -13.5186 0.0000 -0.0000 0.0000 88.3211 2.5833 43.2095 -159.9989 30.6437 -114.4681 0.0000 -0.0000 -12.5277 46.6761 -22.0081 -21.6694 7.1250 -0.0000 -0.0000 59.0935 -42.0129 7.6457
4.9149 13.8140 -24.9457 -174.7240 -64.3546 185.7570 0.0000 0.0000 0.0000 -5.8535 4.5412 -62.0445 15.3128 19.4649 76.1771 1.7064 -5.3416 -23.5578 0.3427 -3.7615 -10.4065 0.0000 0.0000 0.0000 15.2640 10.6852 -61.0788 -17.0003 -19.7829 81.1989 -2.4952 0.3549 -29.8322 -0.1123 2.1610 -5.9508 0.6117 0.0030 34.6943 -0.5274 -1.5238 10.5496 -0.2711 -1.3881 -5.9590 7.9686 0.7825 -4.2434 8.8246 -7.1595 36.6355 1.0065 -1.9813 13.3925 0.0000 0.0000 0.0000 -83.4485 2.2908 30.8680 139.4209 -48.4093 -101.1288 -0.0000 0.0000 -6.7785 -6.8246 31.8087 -3.6094 -7.1250 0.0000 -0.0000 -41.6583 56.6361 -13.4896 0.0000 0.0000 0.0000 88.3113 2.6268 43.2369 -159.9868 30.6583 -114.4619 0.0000 -0.0000 -12.5579 46.2693 -22.1461 -21.5071 7.1250 -0.0000 -0.0000 59.1616 -42.2301 7.0664
4.9229 13.8059 -24.9389 -174.5860 -64.3941 185.6840 0.0000 0.0000 0.0000 -5.7804 4.4764 -62.2211 15.3529 19.4742 76.2975 1.7053 -5.3312 -23.5508 0.3410 -3.7522 -10.3805 0.0000 0.0000 0.0000 15.2784 10.7041 -61.2238 -17.0212 -19.7859 81.2608 -2.4910 0.3243 -29.8159 -0.1135 2.1724 -5.9825 0.5866 0.0168 34.7023 -0.5373 -1.5219 10.5860 -0.2694 -1.3894 -5.9222 7.9487 0.8000 -4.2280 8.8042 -7.1254 36.6611 1.0067 -1.9702 13.3986 -0.0000 0.0000 0.0000 -83.4453 2.2524 30.8411 139.4413 -48.3974 -101.1441 -0.0000 0.0000 -6.7716 -6.7581 31.7648 -3.5697 -7.1250 0.0000 -0.0000 -41.5562 56.6162 -13.4266 -0.0000 0.0000 0.0000 88.3048 2.6721 43.2747 -159.9631 30.6868 -114.4498 0.0000 -0.0000 -12.5534 45.8622 -22.2580 -21.3233 7.1250 -0.0000 -0.0000 59.1936 -42.4216 6.5508
